<svg width="40" height="40" viewBox="0 0 40 40" fill="none" xmlns="http://www.w3.org/2000/svg">
<circle cx="20.9735" cy="20" r="17.2734" transform="rotate(80.0429 20.9735 20)" fill="#FFCC00"/>
<path d="M28.5347 15.0571C29.1875 13.4561 27.5727 11.8413 25.9717 12.4941L21.8681 14.1665L18.4632 11.2619C17.136 10.1287 15.1185 11.1482 15.2619 12.8802L15.6299 17.3192L11.8514 19.6285C10.378 20.5294 10.746 22.7742 12.4356 23.1915L16.7673 24.2615L17.8366 28.5938C18.2539 30.2835 20.4987 30.6515 21.4003 29.1774L23.7082 25.4002L28.1479 25.7676C29.8799 25.911 30.8987 23.8942 29.7662 22.5663L26.8609 19.162L28.5347 15.0571Z" fill="white"/>
</svg>
