<svg width="100" height="100" viewBox="0 0 100 100" fill="none" xmlns="http://www.w3.org/2000/svg">
<path d="M55.6875 7C57.321 6.99987 58.9262 7.42656 60.3441 8.2378C61.7619 9.04904 62.9432 10.2167 63.7708 11.625L67.1625 17.4042H75.7917C77.57 17.4042 79.3309 17.7544 80.9738 18.435C82.6168 19.1155 84.1096 20.113 85.3671 21.3704C86.6245 22.6279 87.622 24.1207 88.3025 25.7637C88.9831 27.4066 89.3333 29.1675 89.3333 30.9458V49.9458C84.2953 45.0994 77.574 42.396 70.5833 42.4042C68.8472 42.4097 67.1555 42.5681 65.5083 42.8792C64.1248 38.6383 61.2753 35.0292 57.4711 32.6997C53.6669 30.3701 49.157 29.4725 44.7507 30.1679C40.3443 30.8633 36.3301 33.1062 33.4282 36.4942C30.5263 39.8821 28.9268 44.1933 28.9167 48.6542C28.9167 57.6167 35.2083 65.1125 43.6167 66.9667C43.5389 67.7944 43.5 68.6347 43.5 69.4875C43.492 74.6563 44.9702 79.7185 47.7583 84.0708H19.5417C15.9502 84.0708 12.5058 82.6441 9.96626 80.1046C7.42671 77.565 6 74.1206 6 70.5292V30.9458C6 27.3544 7.42671 23.91 9.96626 21.3704C12.5058 18.8309 15.9502 17.4042 19.5417 17.4042H28.2083L31.8542 11.4708C32.6925 10.1051 33.8668 8.97701 35.2652 8.19431C36.6635 7.41161 38.2392 7.00042 39.8417 7H55.6875ZM47.6667 36.1542C50.299 36.1541 52.8642 36.985 54.9965 38.5286C57.1289 40.0721 58.7195 42.2493 59.5417 44.75C56.1248 46.2804 53.0611 48.5006 50.5429 51.2712C48.0247 54.0417 46.1064 57.3029 44.9083 60.85C41.9125 60.1674 39.2729 58.4056 37.4932 55.9009C35.7135 53.3962 34.9183 50.3239 35.2594 47.2703C35.6005 44.2167 37.0539 41.3956 39.3424 39.3453C41.6308 37.2949 44.5941 36.159 47.6667 36.1542ZM93.5 69.4875C93.5 75.5654 91.0856 81.3943 86.7879 85.692C82.4902 89.9897 76.6612 92.4042 70.5833 92.4042C64.5055 92.4042 58.6765 89.9897 54.3788 85.692C50.0811 81.3943 47.6667 75.5654 47.6667 69.4875C47.6667 63.4096 50.0811 57.5807 54.3788 53.283C58.6765 48.9853 64.5055 46.5708 70.5833 46.5708C76.6612 46.5708 82.4902 48.9853 86.7879 53.283C91.0856 57.5807 93.5 63.4096 93.5 69.4875ZM68.5 81.9875C68.5 82.54 68.7195 83.0699 69.1102 83.4606C69.5009 83.8513 70.0308 84.0708 70.5833 84.0708C71.1359 84.0708 71.6658 83.8513 72.0565 83.4606C72.4472 83.0699 72.6667 82.54 72.6667 81.9875V62.0167L79.525 68.8792C79.9162 69.2704 80.4468 69.4901 81 69.4901C81.5532 69.4901 82.0838 69.2704 82.475 68.8792C82.8662 68.488 83.086 67.9574 83.086 67.4042C83.086 66.8509 82.8662 66.3204 82.475 65.9292L72.0583 55.5125C71.8648 55.3185 71.6349 55.1646 71.3818 55.0595C71.1287 54.9545 70.8574 54.9004 70.5833 54.9004C70.3093 54.9004 70.038 54.9545 69.7849 55.0595C69.5318 55.1646 69.3019 55.3185 69.1083 55.5125L58.6917 65.9292C58.3005 66.3204 58.0807 66.8509 58.0807 67.4042C58.0807 67.9574 58.3005 68.488 58.6917 68.8792C59.0829 69.2704 59.6134 69.4901 60.1667 69.4901C60.7199 69.4901 61.2505 69.2704 61.6417 68.8792L68.5 62.0167V81.9875Z" fill="#333333"/>
</svg>
