<svg width="100" height="100" viewBox="0 0 100 100" fill="none" xmlns="http://www.w3.org/2000/svg">
<circle cx="50" cy="50" r="50" fill="#EFDEFF"/>
<path d="M66 25H36C33.2386 25 31 27.2386 31 30V70C31 72.7614 33.2386 75 36 75H66C68.7614 75 71 72.7614 71 70V30C71 27.2386 68.7614 25 66 25Z" stroke="#7E25D2" stroke-width="5" stroke-linecap="round" stroke-linejoin="round"/>
<path d="M41 35H61M61 55V65M61 45H61.025M51 45H51.025M41 45H41.025M51 55H51.025M41 55H41.025M51 65H51.025M41 65H41.025" stroke="#7E25D2" stroke-width="5" stroke-linecap="round" stroke-linejoin="round"/>
</svg>
