<svg width="100" height="100" viewBox="0 0 100 100" fill="none" xmlns="http://www.w3.org/2000/svg">
<circle cx="50" cy="50" r="50" fill="#FFDCDC"/>
<path d="M50.5 74.9997V49.9997M50.5 49.9997L72.325 37.3997M50.5 49.9997L28.675 37.3997M73 60.0197V39.9747C72.9985 39.1024 72.7665 38.246 72.3274 37.4922C71.8884 36.7384 71.258 36.114 70.5 35.6822L53 25.6622C52.2383 25.2282 51.3767 25 50.5 25C49.6233 25 48.7617 25.2282 48 25.6622L30.5 35.6822C28.9525 36.5697 28 38.2072 28 39.9772V60.0222C28 61.7947 28.9525 63.4297 30.5 64.3147L48 74.3347C48.7617 74.7687 49.6233 74.997 50.5 74.997C51.3767 74.997 52.2383 74.7687 53 74.3347L70.5 64.3147C72.0475 63.4272 73 61.7897 73 60.0197Z" stroke="#D94B4B" stroke-width="5" stroke-linecap="round" stroke-linejoin="round"/>
</svg>
