<svg width="100" height="100" viewBox="0 0 100 100" fill="none" xmlns="http://www.w3.org/2000/svg">
<circle cx="50" cy="50" r="50" fill="#DAF1CD"/>
<path d="M27.5 35C27.5 32.3478 28.5536 29.8043 30.4289 27.9289C32.3043 26.0536 34.8478 25 37.5 25H72.5V75H37.5C34.8478 75 32.3043 73.9464 30.4289 72.0711C28.5536 70.1957 27.5 67.6522 27.5 65V35ZM32.5 56.3375C34.0204 55.4606 35.7448 54.9993 37.5 55H67.5V30H37.5C36.1739 30 34.9021 30.5268 33.9645 31.4645C33.0268 32.4021 32.5 33.6739 32.5 35V56.3375ZM67.5 60H37.5C36.1739 60 34.9021 60.5268 33.9645 61.4645C33.0268 62.4021 32.5 63.6739 32.5 65C32.5 66.3261 33.0268 67.5979 33.9645 68.5355C34.9021 69.4732 36.1739 70 37.5 70H67.5V60ZM45 35H62.5V40H45V35Z" fill="#45B804"/>
</svg>
