<svg width="100" height="100" viewBox="0 0 100 100" fill="none" xmlns="http://www.w3.org/2000/svg">
<circle cx="50" cy="50" r="50" fill="#D9E7FF"/>
<path d="M74.9975 40C74.9974 39.5463 74.8738 39.1013 74.64 38.7125L67.8675 27.425C67.4213 26.6871 66.7928 26.0764 66.0424 25.6517C65.2919 25.227 64.4448 25.0026 63.5825 25H36.4125C34.6675 25 33.025 25.93 32.1275 27.4275L25.355 38.7125C25.1212 39.1013 24.9976 39.5463 24.9975 40C24.9975 42.5125 25.9625 44.785 27.4975 46.545V70C27.4975 70.663 27.7609 71.2989 28.2297 71.7678C28.6986 72.2366 29.3345 72.5 29.9975 72.5H49.9975C50.6605 72.5 51.2964 72.2366 51.7653 71.7678C52.2341 71.2989 52.4975 70.663 52.4975 70V57.5H62.4975V70C62.4975 70.663 62.7609 71.2989 63.2297 71.7678C63.6986 72.2366 64.3345 72.5 64.9975 72.5H69.9975C70.6605 72.5 71.2964 72.2366 71.7653 71.7678C72.2341 71.2989 72.4975 70.663 72.4975 70V46.545C74.0325 44.785 74.9975 42.5125 74.9975 40ZM69.9575 40.6275C69.8047 41.8352 69.2166 42.9457 68.3035 43.7507C67.3903 44.5557 66.2148 44.9999 64.9975 45C62.24 45 59.9975 42.7575 59.9975 40C59.9975 39.83 59.935 39.68 59.9 39.52L59.95 39.51L58.0475 30H63.5825L69.9575 40.6275ZM45.015 40.1625L47.045 30H52.9475L54.98 40.1625C54.8925 42.845 52.6975 45 49.9975 45C47.2975 45 45.1025 42.845 45.015 40.1625ZM36.4125 30H41.9475L40.0475 39.51L40.0975 39.52C40.06 39.68 39.9975 39.83 39.9975 40C39.9975 42.7575 37.755 45 34.9975 45C33.7802 44.9999 32.6047 44.5557 31.6915 43.7507C30.7784 42.9457 30.1903 41.8352 30.0375 40.6275L36.4125 30ZM44.9975 60H34.9975V52.5H44.9975V60Z" fill="#185BC5"/>
</svg>
