<svg width="146" height="125" viewBox="0 0 146 125" fill="none" xmlns="http://www.w3.org/2000/svg">
<mask id="mask0_133_59" style="mask-type:luminance" maskUnits="userSpaceOnUse" x="0" y="0" width="146" height="125">
<path d="M0.041626 0.192749H146V124.193H0.041626V0.192749Z" fill="white"/>
</mask>
<g mask="url(#mask0_133_59)">
<path d="M50.276 42.0677L50.2656 39.5208C55.7656 37.9531 60.7343 34.7969 64.526 30.4219C69.1823 25.0469 71.75 18.1667 71.75 11.0417V0.1875L49.3645 2.18229C44.3229 2.63021 39.6145 4.81771 36.0208 8.25C32.4218 4.81771 27.7187 2.63021 22.6718 2.18229L0.291626 0.1875V11.0469C0.291626 18.1667 2.85413 25.0469 7.51558 30.4219C11.3073 34.8021 16.276 37.9531 21.776 39.5208L21.75 46.3177C21.75 74.849 41.2239 99.4896 68.5625 106.281C68.5729 110.943 69.427 115.87 71.6718 120.755L73.2864 124.276L76.9427 122.995C85.3645 120.031 92.2656 114.422 97.2135 106.589C125.208 100.271 145.333 75.2292 145.333 46.3177V42.0677H50.276ZM102.135 96.2812C103.651 91.9427 104.385 88.1354 104.724 85.7812C113.255 81.1875 120.12 73.9219 124.203 65.1042L116.495 61.5312C112.906 69.2708 106.677 75.5365 98.9583 79.1771L96.6823 80.2448L96.526 82.7552C96.5104 82.9844 94.9479 104.552 77.9895 113.307C74.1354 98.9375 83.8698 84.3385 83.9791 84.1823L80.4687 81.7865L76.9635 79.3854C76.6093 79.9062 71.5208 87.4688 69.4375 97.724C46.4843 91.4688 30.2448 70.5156 30.2448 46.3333L30.3073 32.4635L26.6823 31.9115C21.75 31.1563 17.2239 28.6563 13.9375 24.8594C10.6198 21.026 8.79163 16.1198 8.79163 11.0469V9.47396L21.9166 10.6458C26.2291 11.0313 30.1458 13.474 32.3854 17.1771L32.4948 17.3594L36.3698 22.5208L39.6614 17.1771C41.8958 13.474 45.8073 11.0313 50.1198 10.6458L63.25 9.47396V11.0469C63.25 16.1198 61.4218 21.026 58.1041 24.8594C54.8177 28.651 50.2916 31.1563 45.3593 31.9115L41.7395 32.4635L41.8177 50.5677H136.667C135.016 71.3073 121.37 89.1354 102.135 96.2812Z" fill="#004AAD"/>
<path d="M106.193 61.125C106.193 63.4687 104.292 65.375 101.943 65.375C99.5989 65.375 97.6979 63.4687 97.6979 61.125C97.6979 58.776 99.5989 56.875 101.943 56.875C104.292 56.875 106.193 58.776 106.193 61.125Z" fill="#004AAD"/>
</g>
</svg>
