<svg width="200" height="200" viewBox="0 0 200 200" fill="none" xmlns="http://www.w3.org/2000/svg">
<path d="M0 16C0 7.16344 7.16344 0 16 0H184C192.837 0 200 7.16344 200 16V184C200 192.837 192.837 200 184 200H16C7.16344 200 0 192.837 0 184V16Z" fill="white"/>
<path d="M133.151 98.9323C133.151 101.276 131.25 103.182 128.901 103.182C126.557 103.182 124.656 101.276 124.656 98.9323C124.656 96.5833 126.557 94.6823 128.901 94.6823C131.25 94.6823 133.151 96.5833 133.151 98.9323Z" fill="#004AAD"/>
<mask id="mask0_215_1011" style="mask-type:luminance" maskUnits="userSpaceOnUse" x="27" y="38" width="146" height="124">
<path d="M27 38H172.958V162H27V38Z" fill="white"/>
</mask>
<g mask="url(#mask0_215_1011)">
<path d="M77.2344 79.875L77.224 77.3281C82.724 75.7604 87.6927 72.6041 91.4844 68.2291C96.1406 62.8541 98.7083 55.9739 98.7083 48.8489V37.9948L76.3229 39.9895C71.2813 40.4375 66.5729 42.625 62.9792 46.0573C59.3802 42.625 54.6771 40.4375 49.6302 39.9895L27.25 37.9948V48.8541C27.25 55.9739 29.8125 62.8541 34.474 68.2291C38.2656 72.6093 43.2344 75.7604 48.7344 77.3281L48.7083 84.125C48.7083 112.656 68.1823 137.297 95.5208 144.089C95.5313 148.75 96.3854 153.677 98.6302 158.562L100.245 162.083L103.901 160.802C112.323 157.839 119.224 152.229 124.172 144.396C152.167 138.078 172.292 113.036 172.292 84.125V79.875H77.2344ZM129.094 134.089C130.609 129.75 131.344 125.943 131.682 123.589C140.214 118.995 147.078 111.729 151.161 102.911L143.453 99.3385C139.865 107.078 133.635 113.344 125.917 116.984L123.641 118.052L123.484 120.562C123.469 120.792 121.906 142.359 104.948 151.115C101.094 136.745 110.828 122.146 110.938 121.99L107.427 119.594L103.922 117.193C103.568 117.714 98.4792 125.276 96.3958 135.531C73.4427 129.276 57.2031 108.323 57.2031 84.1406L57.2656 70.2708L53.6406 69.7187C48.7083 68.9635 44.1823 66.4635 40.8958 62.6666C37.5781 58.8333 35.75 53.927 35.75 48.8541V47.2812L48.875 48.4531C53.1875 48.8385 57.1042 51.2812 59.3438 54.9843L59.4531 55.1666L63.3281 60.3281L66.6198 54.9843C68.8542 51.2812 72.7656 48.8385 77.0781 48.4531L90.2083 47.2812V48.8541C90.2083 53.927 88.3802 58.8333 85.0625 62.6666C81.776 66.4583 77.25 68.9635 72.3177 69.7187L68.6979 70.2708L68.776 88.375H163.625C161.974 109.115 148.328 126.943 129.094 134.089Z" fill="#004AAD"/>
</g>
</svg>
