<svg width="152" height="38" viewBox="0 0 152 38" fill="none" xmlns="http://www.w3.org/2000/svg">
<path d="M0.710938 1.27588H8.3151V29.6509H24.7734V36.7342H0.710938V1.27588Z" fill="#004AAD"/>
<path d="M26.5406 11.9008H33.374V36.7342H26.5406V11.9008ZM29.9365 8.60917C28.8531 8.60917 27.9261 8.23417 27.1656 7.48417C26.4156 6.72376 26.0406 5.83313 26.0406 4.8175C26.0406 3.80709 26.4261 2.91646 27.2073 2.15084C27.9834 1.39042 28.9052 1.005 29.9781 1.005C31.0615 1.005 31.9834 1.39042 32.749 2.15084C33.5094 2.91646 33.8948 3.80709 33.8948 4.8175C33.8948 5.83313 33.5042 6.72376 32.7281 7.48417C31.9469 8.23417 31.0198 8.60917 29.9365 8.60917Z" fill="#004AAD"/>
<path d="M33.8896 11.9009H41.223L46.9521 28.63H47.1605L52.8896 11.9009H60.223L50.8688 36.7342H43.2646L33.8896 11.9009Z" fill="#004AAD"/>
<path d="M62.2535 18.755H58.4618V12.4217H62.2535V9.88C62.2535 6.9373 63.0087 4.68209 64.5243 3.10917C66.0503 1.54146 68.0764 0.755005 70.6076 0.755005C71.2587 0.755005 71.8628 0.796672 72.4201 0.880005C72.9722 0.963338 73.4514 1.0623 73.8576 1.17167C74.3264 1.29667 74.7639 1.41646 75.1701 1.52584V7.85917C74.9305 7.79146 74.6597 7.70813 74.3576 7.60917C74.092 7.54146 73.7847 7.47896 73.441 7.42167C73.1076 7.36959 72.7535 7.33834 72.3785 7.33834C71.3628 7.33834 70.5555 7.64563 69.9618 8.255C69.3785 8.86959 69.0868 9.7498 69.0868 10.9008V12.4217H74.6701V18.755H69.0868V36.7342H62.2535V18.755Z" fill="#004AAD"/>
<path d="M77.1921 1.27588H84.0463V36.7342H77.1921V1.27588Z" fill="#004AAD"/>
<path d="M99.9851 37.2342C98.1622 37.2342 96.4487 36.9009 94.8393 36.2342C93.2404 35.5571 91.8393 34.6248 90.631 33.4425C89.4331 32.2655 88.4956 30.8957 87.8185 29.3384C87.1518 27.7863 86.8185 26.1092 86.8185 24.3175C86.8185 22.5675 87.1518 20.9113 87.8185 19.3384C88.4956 17.7707 89.4331 16.3957 90.631 15.2134C91.8393 14.0207 93.2404 13.0884 94.8393 12.4217C96.4487 11.7446 98.1622 11.4009 99.9851 11.4009C101.818 11.4009 103.532 11.7446 105.131 12.4217C106.74 13.0884 108.141 14.0207 109.339 15.2134C110.532 16.3957 111.47 17.7707 112.152 19.3384C112.829 20.9113 113.173 22.5675 113.173 24.3175C113.173 26.1092 112.829 27.7863 112.152 29.3384C111.47 30.8957 110.532 32.2655 109.339 33.4425C108.141 34.6248 106.74 35.5571 105.131 36.2342C103.532 36.9009 101.818 37.2342 99.9851 37.2342ZM99.9851 30.9009C100.871 30.9009 101.704 30.7342 102.485 30.4009C103.261 30.0675 103.933 29.6196 104.506 29.0467C105.074 28.4634 105.516 27.7707 105.839 26.9634C106.157 26.1457 106.318 25.2655 106.318 24.3175C106.318 23.3748 106.157 22.4998 105.839 21.6925C105.516 20.8748 105.074 20.1821 104.506 19.6092C103.933 19.0415 103.261 18.5884 102.485 18.255C101.704 17.9113 100.871 17.7342 99.9851 17.7342C99.1101 17.7342 98.282 17.9113 97.506 18.255C96.7247 18.5884 96.0529 19.0415 95.4851 19.6092C94.9122 20.1821 94.4643 20.8748 94.131 21.6925C93.8081 22.4998 93.6518 23.3748 93.6518 24.3175C93.6518 25.2655 93.8081 26.1457 94.131 26.9634C94.4643 27.7707 94.9122 28.4634 95.4851 29.0467C96.0529 29.6196 96.7247 30.0675 97.506 30.4009C98.282 30.7342 99.1101 30.9009 99.9851 30.9009Z" fill="#004AAD"/>
<path d="M112.151 11.9009H119.485L124.047 26.6092H124.318L129.131 11.9009H134.693L139.506 26.6092H139.756L144.318 11.9009H151.672L142.964 36.7342H136.714L132.006 22.2967H131.797L127.089 36.7342H120.86L112.151 11.9009Z" fill="#004AAD"/>
</svg>
