<svg width="20" height="10" viewBox="0 0 20 10" fill="none" xmlns="http://www.w3.org/2000/svg">
<path d="M1 1V4C1 4.26522 1.10536 4.51957 1.29289 4.70711C1.48043 4.89464 1.73478 5 2 5H5M5 1V9M15 1V4C15 4.26522 15.1054 4.51957 15.2929 4.70711C15.4804 4.89464 15.7348 5 16 5H19M19 1V9M8 3V7C8 7.53043 8.21071 8.03914 8.58579 8.41421C8.96086 8.78929 9.46957 9 10 9C10.5304 9 11.0391 8.78929 11.4142 8.41421C11.7893 8.03914 12 7.53043 12 7V3C12 2.46957 11.7893 1.96086 11.4142 1.58579C11.0391 1.21071 10.5304 1 10 1C9.46957 1 8.96086 1.21071 8.58579 1.58579C8.21071 1.96086 8 2.46957 8 3Z" stroke="#004AAD" stroke-width="2" stroke-linecap="round" stroke-linejoin="round"/>
</svg>