<svg width="350" height="150" viewBox="0 0 350 150" fill="none" xmlns="http://www.w3.org/2000/svg">
<path d="M135.193 72.125C135.193 74.4687 133.292 76.375 130.943 76.375C128.599 76.375 126.698 74.4687 126.698 72.125C126.698 69.776 128.599 67.875 130.943 67.875C133.292 67.875 135.193 69.776 135.193 72.125Z" fill="#004AAD"/>
<mask id="mask0_133_56" style="mask-type:luminance" maskUnits="userSpaceOnUse" x="29" y="11" width="146" height="125">
<path d="M29.0416 11.1927H175V135.193H29.0416V11.1927Z" fill="white"/>
</mask>
<g mask="url(#mask0_133_56)">
<path d="M79.276 53.0677L79.2656 50.5208C84.7656 48.9531 89.7343 45.7969 93.526 41.4219C98.1823 36.0469 100.75 29.1667 100.75 22.0417V11.1875L78.3645 13.1823C73.3229 13.6302 68.6145 15.8177 65.0208 19.25C61.4218 15.8177 56.7187 13.6302 51.6718 13.1823L29.2916 11.1875V22.0469C29.2916 29.1667 31.8541 36.0469 36.5156 41.4219C40.3073 45.8021 45.276 48.9531 50.776 50.5208L50.75 57.3177C50.75 85.849 70.2239 110.49 97.5625 117.281C97.5729 121.943 98.427 126.87 100.672 131.755L102.286 135.276L105.943 133.995C114.365 131.031 121.266 125.422 126.214 117.589C154.208 111.271 174.333 86.2292 174.333 57.3177V53.0677H79.276ZM131.135 107.281C132.651 102.943 133.385 99.1354 133.724 96.7812C142.255 92.1875 149.12 84.9219 153.203 76.1042L145.495 72.5312C141.906 80.2708 135.677 86.5365 127.958 90.1771L125.682 91.2448L125.526 93.7552C125.51 93.9844 123.948 115.552 106.99 124.307C103.135 109.938 112.87 95.3385 112.979 95.1823L109.469 92.7865L105.964 90.3854C105.609 90.9062 100.521 98.4688 98.4375 108.724C75.4843 102.469 59.2448 81.5156 59.2448 57.3333L59.3073 43.4635L55.6823 42.9115C50.75 42.1563 46.2239 39.6563 42.9375 35.8594C39.6198 32.026 37.7916 27.1198 37.7916 22.0469V20.474L50.9166 21.6458C55.2291 22.0313 59.1458 24.474 61.3854 28.1771L61.4948 28.3594L65.3698 33.5208L68.6614 28.1771C70.8958 24.474 74.8073 22.0313 79.1198 21.6458L92.25 20.474V22.0469C92.25 27.1198 90.4218 32.026 87.1041 35.8594C83.8177 39.651 79.2916 42.1563 74.3593 42.9115L70.7395 43.4635L70.8177 61.5677H165.667C164.016 82.3073 150.37 100.135 131.135 107.281Z" fill="#004AAD"/>
</g>
<path d="M180.711 53.2759H188.315V81.6509H204.773V88.7342H180.711V53.2759Z" fill="#004AAD"/>
<path d="M206.541 63.9008H213.374V88.7342H206.541V63.9008ZM209.936 60.6092C208.853 60.6092 207.926 60.2342 207.166 59.4842C206.416 58.7238 206.041 57.8331 206.041 56.8175C206.041 55.8071 206.426 54.9165 207.207 54.1508C207.983 53.3904 208.905 53.005 209.978 53.005C211.061 53.005 211.983 53.3904 212.749 54.1508C213.509 54.9165 213.895 55.8071 213.895 56.8175C213.895 57.8331 213.504 58.7238 212.728 59.4842C211.947 60.2342 211.02 60.6092 209.936 60.6092Z" fill="#004AAD"/>
<path d="M213.89 63.9009H221.223L226.952 80.63H227.16L232.89 63.9009H240.223L230.869 88.7342H223.265L213.89 63.9009Z" fill="#004AAD"/>
<path d="M242.253 70.755H238.462V64.4217H242.253V61.88C242.253 58.9373 243.009 56.6821 244.524 55.1092C246.05 53.5415 248.076 52.755 250.608 52.755C251.259 52.755 251.863 52.7967 252.42 52.88C252.972 52.9633 253.451 53.0623 253.858 53.1717C254.326 53.2967 254.764 53.4165 255.17 53.5258V59.8592C254.931 59.7915 254.66 59.7081 254.358 59.6092C254.092 59.5415 253.785 59.479 253.441 59.4217C253.108 59.3696 252.753 59.3383 252.378 59.3383C251.363 59.3383 250.556 59.6456 249.962 60.255C249.378 60.8696 249.087 61.7498 249.087 62.9008V64.4217H254.67V70.755H249.087V88.7342H242.253V70.755Z" fill="#004AAD"/>
<path d="M257.192 53.2759H264.046V88.7342H257.192V53.2759Z" fill="#004AAD"/>
<path d="M279.985 89.2342C278.162 89.2342 276.449 88.9009 274.839 88.2342C273.24 87.5571 271.839 86.6248 270.631 85.4425C269.433 84.2655 268.496 82.8957 267.818 81.3384C267.152 79.7863 266.818 78.1092 266.818 76.3175C266.818 74.5675 267.152 72.9113 267.818 71.3384C268.496 69.7707 269.433 68.3957 270.631 67.2134C271.839 66.0207 273.24 65.0884 274.839 64.4217C276.449 63.7446 278.162 63.4009 279.985 63.4009C281.818 63.4009 283.532 63.7446 285.131 64.4217C286.74 65.0884 288.141 66.0207 289.339 67.2134C290.532 68.3957 291.47 69.7707 292.152 71.3384C292.829 72.9113 293.173 74.5675 293.173 76.3175C293.173 78.1092 292.829 79.7863 292.152 81.3384C291.47 82.8957 290.532 84.2655 289.339 85.4425C288.141 86.6248 286.74 87.5571 285.131 88.2342C283.532 88.9009 281.818 89.2342 279.985 89.2342ZM279.985 82.9009C280.871 82.9009 281.704 82.7342 282.485 82.4009C283.261 82.0675 283.933 81.6196 284.506 81.0467C285.074 80.4634 285.516 79.7707 285.839 78.9634C286.157 78.1457 286.318 77.2655 286.318 76.3175C286.318 75.3748 286.157 74.4998 285.839 73.6925C285.516 72.8748 285.074 72.1821 284.506 71.6092C283.933 71.0415 283.261 70.5884 282.485 70.255C281.704 69.9113 280.871 69.7342 279.985 69.7342C279.11 69.7342 278.282 69.9113 277.506 70.255C276.725 70.5884 276.053 71.0415 275.485 71.6092C274.912 72.1821 274.464 72.8748 274.131 73.6925C273.808 74.4998 273.652 75.3748 273.652 76.3175C273.652 77.2655 273.808 78.1457 274.131 78.9634C274.464 79.7707 274.912 80.4634 275.485 81.0467C276.053 81.6196 276.725 82.0675 277.506 82.4009C278.282 82.7342 279.11 82.9009 279.985 82.9009Z" fill="#004AAD"/>
<path d="M292.151 63.9009H299.485L304.047 78.6092H304.318L309.131 63.9009H314.693L319.506 78.6092H319.756L324.318 63.9009H331.672L322.964 88.7342H316.714L312.006 74.2967H311.797L307.089 88.7342H300.86L292.151 63.9009Z" fill="#004AAD"/>
</svg>
