<svg width="628" height="68" viewBox="0 0 628 68" fill="none" xmlns="http://www.w3.org/2000/svg">
<g filter="url(#filter0_d_7_72)">
<rect x="4" y="4" width="620" height="60" rx="4" fill="white" shape-rendering="crispEdges"/>
<path fill-rule="evenodd" clip-rule="evenodd" d="M51.38 33.8522C51.38 32.7531 51.2814 31.6963 51.0982 30.6818H36.5V36.6774H44.8418C44.4825 38.6149 43.3905 40.2565 41.7489 41.3556V45.2447H46.7582C49.6891 42.5463 51.38 38.5727 51.38 33.8522Z" fill="#4285F4"/>
<path fill-rule="evenodd" clip-rule="evenodd" d="M36.5 48.9999C40.685 48.9999 44.1937 47.612 46.7582 45.2447L41.7489 41.3556C40.361 42.2856 38.5855 42.8352 36.5 42.8352C32.463 42.8352 29.046 40.1086 27.8271 36.4449H22.6487V40.4609C25.1991 45.5265 30.441 48.9999 36.5 48.9999Z" fill="#34A853"/>
<path fill-rule="evenodd" clip-rule="evenodd" d="M27.827 36.445C27.517 35.515 27.3409 34.5216 27.3409 33.5C27.3409 32.4784 27.517 31.485 27.827 30.555V26.5391H22.6486C21.5989 28.6316 21 30.9988 21 33.5C21 36.0011 21.5989 38.3684 22.6486 40.4609L27.827 36.445Z" fill="#FBBC05"/>
<path fill-rule="evenodd" clip-rule="evenodd" d="M36.5 24.1648C38.7757 24.1648 40.8189 24.9468 42.4253 26.4827L46.871 22.037C44.1866 19.5359 40.678 18 36.5 18C30.441 18 25.1991 21.4734 22.6487 26.5391L27.8271 30.555C29.046 26.8914 32.463 24.1648 36.5 24.1648Z" fill="#EA4335"/>
<path d="M282.273 26.2539V27.7969C282.273 29.457 282.273 31.2539 281.785 33.7539H284.305V35.2773H277.215V42.6797H275.34V35.2773H268.348V33.7539H279.91C280.438 31.2637 280.438 29.4277 280.438 27.7969V27.7773H270.301V26.2539H282.273ZM299.617 25.9023V27.0547C299.617 28.2168 299.617 29.6816 299.246 31.5859H301.648V33.0703H285.633V31.5859H297.391C297.742 29.8086 297.781 28.4707 297.781 27.3867H287.645V25.9023H299.617ZM299.637 34.6328V39.2227H289.383V41H300.086V42.4844H287.527V37.7969H297.801V36.1172H287.508V34.6328H299.637ZM318.934 39.0078V40.5703H302.918V39.0078H309.969V35.9414H304.871V30.375H315.145V27.9141H304.832V26.3906H316.98V31.8594H306.707V34.418H317.391V35.9414H311.805V39.0078H318.934ZM341.102 39.0078V40.5703H325.086V39.0078H332.137V35.9414H327.039V30.375H337.312V27.9141H327V26.3906H339.148V31.8594H328.875V34.418H339.559V35.9414H333.973V39.0078H341.102ZM356.238 26.9375V28.8125C356.238 31.0781 356.238 33.5391 355.594 37.2695L353.699 37.0938C354.402 33.5977 354.402 31.0195 354.402 28.8125V28.4609H344.09V26.9375H356.238ZM358.328 38.6367V40.1797H342.371V38.6367H358.328ZM374.168 25.1797V37.8945H372.312V25.1797H374.168ZM374.695 40.7852V42.2891H362.723V36.6055H364.598V40.7852H374.695ZM364.676 26.3516C367.312 26.3516 369.324 28.1484 369.324 30.6875C369.324 33.2656 367.312 35.043 364.676 35.043C362.039 35.043 360.008 33.2656 360.008 30.6875C360.008 28.1484 362.039 26.3516 364.676 26.3516ZM364.676 27.9727C363.035 27.9727 361.824 29.0859 361.824 30.6875C361.824 32.3281 363.035 33.4219 364.676 33.4219C366.277 33.4219 367.508 32.3281 367.508 30.6875C367.508 29.0859 366.277 27.9727 364.676 27.9727Z" fill="#121212" fill-opacity="0.5"/>
</g>
<defs>
<filter id="filter0_d_7_72" x="0" y="0" width="628" height="68" filterUnits="userSpaceOnUse" color-interpolation-filters="sRGB">
<feFlood flood-opacity="0" result="BackgroundImageFix"/>
<feColorMatrix in="SourceAlpha" type="matrix" values="0 0 0 0 0 0 0 0 0 0 0 0 0 0 0 0 0 0 127 0" result="hardAlpha"/>
<feOffset/>
<feGaussianBlur stdDeviation="2"/>
<feComposite in2="hardAlpha" operator="out"/>
<feColorMatrix type="matrix" values="0 0 0 0 0 0 0 0 0 0 0 0 0 0 0 0 0 0 0.25 0"/>
<feBlend mode="normal" in2="BackgroundImageFix" result="effect1_dropShadow_7_72"/>
<feBlend mode="normal" in="SourceGraphic" in2="effect1_dropShadow_7_72" result="shape"/>
</filter>
</defs>
</svg>
