<svg width="620" height="60" viewBox="0 0 620 60" fill="none" xmlns="http://www.w3.org/2000/svg">
<rect width="620" height="60" rx="4" fill="#FEE500"/>
<path fill-rule="evenodd" clip-rule="evenodd" d="M32.5001 15.0333C23.9392 15.0333 17 20.3945 17 27.0067C17 31.1189 19.6839 34.7441 23.771 36.9003L22.0513 43.1822C21.8994 43.7373 22.5342 44.1797 23.0217 43.858L30.5597 38.883C31.1958 38.9444 31.8423 38.9802 32.5001 38.9802C41.0603 38.9802 48 33.6192 48 27.0067C48 20.3945 41.0603 15.0333 32.5001 15.0333Z" fill="black"/>
<path d="M268.994 22.36H270.614C270.614 27.58 268.854 32.38 262.374 35.6L261.474 34.32C267.194 31.5 268.994 27.46 268.994 22.54V22.36ZM262.454 22.36H269.974V23.7H262.454V22.36ZM268.734 26.84V28.12L261.814 28.8L261.554 27.32L268.734 26.84ZM273.534 20.46H275.214V38.56H273.534V20.46ZM274.754 27.8H278.094V29.18H274.754V27.8ZM287.393 22.36H289.013C289.013 27.58 287.253 32.38 280.773 35.6L279.873 34.32C285.593 31.5 287.393 27.46 287.393 22.54V22.36ZM280.853 22.36H288.373V23.7H280.853V22.36ZM287.133 26.84V28.12L280.213 28.8L279.953 27.32L287.133 26.84ZM291.933 20.46H293.613V38.56H291.933V20.46ZM293.153 27.8H296.493V29.18H293.153V27.8ZM305.431 30.7H307.091V35.2H305.431V30.7ZM306.271 21.66C310.091 21.66 312.831 23.52 312.831 26.4C312.831 29.28 310.091 31.14 306.271 31.14C302.451 31.14 299.691 29.28 299.691 26.4C299.691 23.52 302.451 21.66 306.271 21.66ZM306.271 22.98C303.391 22.98 301.291 24.34 301.291 26.4C301.291 28.46 303.391 29.82 306.271 29.82C309.131 29.82 311.231 28.46 311.231 26.4C311.231 24.34 309.131 22.98 306.271 22.98ZM298.111 34.88H314.491V36.26H298.111V34.88ZM321.49 34.96H337.87V36.34H321.49V34.96ZM328.81 31.08H330.47V35.54H328.81V31.08ZM323.47 21.82H335.85V27.3H325.17V30.92H323.53V25.96H334.21V23.16H323.47V21.82ZM323.53 30.22H336.27V31.58H323.53V30.22ZM341.649 22.4H353.289V23.74H341.649V22.4ZM339.889 34.54H356.229V35.92H339.889V34.54ZM352.409 22.4H354.029V24.2C354.029 26.52 354.029 29.1 353.349 33L351.689 32.84C352.409 29.14 352.409 26.44 352.409 24.2V22.4ZM371.427 20.5H373.107V33.7H371.427V20.5ZM361.487 36.8H373.647V38.16H361.487V36.8ZM361.487 32.34H363.127V37.26H361.487V32.34ZM363.407 21.74C366.107 21.74 368.107 23.58 368.107 26.2C368.107 28.8 366.107 30.66 363.407 30.66C360.707 30.66 358.687 28.8 358.687 26.2C358.687 23.58 360.707 21.74 363.407 21.74ZM363.407 23.18C361.647 23.18 360.307 24.42 360.307 26.2C360.307 27.96 361.647 29.2 363.407 29.2C365.167 29.2 366.507 27.96 366.507 26.2C366.507 24.42 365.167 23.18 363.407 23.18Z" fill="#121212"/>
</svg>
