<svg width="620" height="60" viewBox="0 0 620 60" fill="none" xmlns="http://www.w3.org/2000/svg">
<rect width="620" height="60" rx="4" fill="#03C75A"/>
<g clip-path="url(#clip0_7_69)">
<path d="M38.0202 30.5902L26.5264 14H17V45H26.9798V28.4072L38.4736 45H48V14H38.0202V30.5902Z" fill="white"/>
</g>
<path d="M267.004 22.9766V32.7031C268.801 32.6738 270.5 32.5566 272.434 32.1562L272.688 33.7383C270.402 34.207 268.469 34.3047 266.301 34.3047H265.148V22.9766H267.004ZM279.387 21.1602V38.6602H277.629V21.1602H279.387ZM275.637 21.5508V37.8008H273.879V28.4453H270.051V26.9219H273.879V21.5508H275.637ZM296.125 21.1602V38.6992H294.27V21.1602H296.125ZM286.77 22.4688C289.367 22.4688 291.281 24.8516 291.281 28.6016C291.281 32.3711 289.367 34.7539 286.77 34.7539C284.133 34.7539 282.238 32.3711 282.238 28.6016C282.238 24.8516 284.133 22.4688 286.77 22.4688ZM286.77 24.1289C285.148 24.1289 284.035 25.8477 284.035 28.6016C284.035 31.375 285.148 33.0938 286.77 33.0938C288.371 33.0938 289.484 31.375 289.484 28.6016C289.484 25.8477 288.371 24.1289 286.77 24.1289ZM313.508 21.1602V38.6992H311.672V29.0703H307.805V34.3633H299.602V22.5078H301.477V26.9805H305.988V22.5078H307.805V27.5469H311.672V21.1602H313.508ZM301.477 32.8398H305.988V28.4453H301.477V32.8398ZM337.102 35.0078V36.5703H321.086V35.0078H328.137V31.9414H323.039V26.375H333.312V23.9141H323V22.3906H335.148V27.8594H324.875V30.418H335.559V31.9414H329.973V35.0078H337.102ZM352.238 22.9375V24.8125C352.238 27.0781 352.238 29.5391 351.594 33.2695L349.699 33.0938C350.402 29.5977 350.402 27.0195 350.402 24.8125V24.4609H340.09V22.9375H352.238ZM354.328 34.6367V36.1797H338.371V34.6367H354.328ZM370.168 21.1797V33.8945H368.312V21.1797H370.168ZM370.695 36.7852V38.2891H358.723V32.6055H360.598V36.7852H370.695ZM360.676 22.3516C363.312 22.3516 365.324 24.1484 365.324 26.6875C365.324 29.2656 363.312 31.043 360.676 31.043C358.039 31.043 356.008 29.2656 356.008 26.6875C356.008 24.1484 358.039 22.3516 360.676 22.3516ZM360.676 23.9727C359.035 23.9727 357.824 25.0859 357.824 26.6875C357.824 28.3281 359.035 29.4219 360.676 29.4219C362.277 29.4219 363.508 28.3281 363.508 26.6875C363.508 25.0859 362.277 23.9727 360.676 23.9727Z" fill="white"/>
<defs>
<clipPath id="clip0_7_69">
<rect width="31" height="31" fill="white" transform="translate(17 14)"/>
</clipPath>
</defs>
</svg>
