<svg width="624" height="64" viewBox="0 0 624 64" fill="none" xmlns="http://www.w3.org/2000/svg">
<g filter="url(#filter0_dd_6_127)">
<rect x="2" y="1" width="620" height="60" rx="2" fill="white" shape-rendering="crispEdges"/>
<path fill-rule="evenodd" clip-rule="evenodd" d="M49.38 30.8523C49.38 29.7532 49.2814 28.6964 49.0982 27.6818H34.5V33.6775H42.8418C42.4825 35.615 41.3905 37.2566 39.7489 38.3557V42.2448H44.7582C47.6891 39.5464 49.38 35.5727 49.38 30.8523Z" fill="#4285F4"/>
<path fill-rule="evenodd" clip-rule="evenodd" d="M34.5 46C38.685 46 42.1937 44.6121 44.7582 42.2448L39.7489 38.3557C38.361 39.2857 36.5855 39.8352 34.5 39.8352C30.463 39.8352 27.046 37.1086 25.8271 33.445H20.6487V37.4609C23.1991 42.5266 28.441 46 34.5 46Z" fill="#34A853"/>
<path fill-rule="evenodd" clip-rule="evenodd" d="M25.827 33.445C25.517 32.515 25.3409 31.5216 25.3409 30.5C25.3409 29.4784 25.517 28.485 25.827 27.555V23.5391H20.6486C19.5989 25.6316 19 27.9989 19 30.5C19 33.0011 19.5989 35.3684 20.6486 37.4609L25.827 33.445Z" fill="#FBBC05"/>
<path fill-rule="evenodd" clip-rule="evenodd" d="M34.5 21.1648C36.7757 21.1648 38.8189 21.9468 40.4253 23.4827L44.871 19.037C42.1866 16.5359 38.678 15 34.5 15C28.441 15 23.1991 18.4734 20.6487 23.5391L25.8271 27.555C27.046 23.8914 30.463 21.1648 34.5 21.1648Z" fill="#EA4335"/>
</g>
<defs>
<filter id="filter0_dd_6_127" x="0" y="0" width="624" height="64" filterUnits="userSpaceOnUse" color-interpolation-filters="sRGB">
<feFlood flood-opacity="0" result="BackgroundImageFix"/>
<feColorMatrix in="SourceAlpha" type="matrix" values="0 0 0 0 0 0 0 0 0 0 0 0 0 0 0 0 0 0 127 0" result="hardAlpha"/>
<feOffset dy="1"/>
<feGaussianBlur stdDeviation="1"/>
<feColorMatrix type="matrix" values="0 0 0 0 0 0 0 0 0 0 0 0 0 0 0 0 0 0 0.25 0"/>
<feBlend mode="normal" in2="BackgroundImageFix" result="effect1_dropShadow_6_127"/>
<feColorMatrix in="SourceAlpha" type="matrix" values="0 0 0 0 0 0 0 0 0 0 0 0 0 0 0 0 0 0 127 0" result="hardAlpha"/>
<feOffset/>
<feComposite in2="hardAlpha" operator="out"/>
<feColorMatrix type="matrix" values="0 0 0 0 0 0 0 0 0 0 0 0 0 0 0 0 0 0 0.08 0"/>
<feBlend mode="normal" in2="effect1_dropShadow_6_127" result="effect2_dropShadow_6_127"/>
<feBlend mode="normal" in="SourceGraphic" in2="effect2_dropShadow_6_127" result="shape"/>
</filter>
</defs>
</svg>
