<svg width="54" height="54" viewBox="0 0 54 54" fill="none" xmlns="http://www.w3.org/2000/svg">
<path d="M47 20.3333H33.6667V6.99992C33.6667 5.23181 32.9643 3.53612 31.7141 2.28587C30.4638 1.03563 28.7681 0.333252 27 0.333252C25.2319 0.333252 23.5362 1.03563 22.286 2.28587C21.0357 3.53612 20.3333 5.23181 20.3333 6.99992L20.57 20.3333H7.00001C5.2319 20.3333 3.53621 21.0356 2.28596 22.2859C1.03572 23.5361 0.333344 25.2318 0.333344 26.9999C0.333344 28.768 1.03572 30.4637 2.28596 31.714C3.53621 32.9642 5.2319 33.6666 7.00001 33.6666L20.57 33.4299L20.3333 46.9999C20.3333 48.768 21.0357 50.4637 22.286 51.714C23.5362 52.9642 25.2319 53.6666 27 53.6666C28.7681 53.6666 30.4638 52.9642 31.7141 51.714C32.9643 50.4637 33.6667 48.768 33.6667 46.9999V33.4299L47 33.6666C48.7681 33.6666 50.4638 32.9642 51.7141 31.714C52.9643 30.4637 53.6667 28.768 53.6667 26.9999C53.6667 25.2318 52.9643 23.5361 51.7141 22.2859C50.4638 21.0356 48.7681 20.3333 47 20.3333Z" fill="#CCCCCC"/>
</svg>
