<svg width="30" height="30" viewBox="0 0 30 30" fill="none" xmlns="http://www.w3.org/2000/svg">
<path d="M26.2813 13.8125V23.75C26.2813 24.4375 26.0367 25.0263 25.5475 25.5163C25.0584 26.0063 24.4696 26.2508 23.7813 26.25H6.28129C5.59379 26.25 5.00545 26.0054 4.51629 25.5163C4.02712 25.0271 3.78212 24.4383 3.78129 23.75V13.8125C3.30212 13.375 2.93254 12.8125 2.67254 12.125C2.41254 11.4375 2.40712 10.6875 2.65629 9.875L3.96879 5.625C4.13545 5.08333 4.43254 4.63542 4.86004 4.28125C5.28754 3.92708 5.78212 3.75 6.34379 3.75H23.7188C24.2813 3.75 24.7709 3.92208 25.1875 4.26625C25.6042 4.61042 25.9063 5.06333 26.0938 5.625L27.4063 9.875C27.6563 10.6875 27.6513 11.4271 27.3913 12.0938C27.1313 12.7604 26.7613 13.3333 26.2813 13.8125ZM17.7813 12.5C18.3438 12.5 18.7709 12.3075 19.0625 11.9225C19.3542 11.5375 19.4688 11.105 19.4063 10.625L18.7188 6.25H16.2813V10.875C16.2813 11.3125 16.4271 11.6929 16.7188 12.0162C17.0105 12.3396 17.3646 12.5008 17.7813 12.5ZM12.1563 12.5C12.6355 12.5 13.0263 12.3383 13.3288 12.015C13.6313 11.6917 13.7821 11.3117 13.7813 10.875V6.25H11.3438L10.6563 10.625C10.573 11.125 10.6821 11.5625 10.9838 11.9375C11.2855 12.3125 11.6763 12.5 12.1563 12.5ZM6.59379 12.5C6.96879 12.5 7.2967 12.3646 7.57754 12.0938C7.85837 11.8229 8.03045 11.4792 8.09379 11.0625L8.78129 6.25H6.34379L5.09379 10.4375C4.96879 10.8542 5.03629 11.3021 5.29629 11.7812C5.55629 12.2604 5.98879 12.5 6.59379 12.5ZM23.4688 12.5C24.073 12.5 24.5105 12.2604 24.7813 11.7812C25.0521 11.3021 25.1146 10.8542 24.9688 10.4375L23.6563 6.25H21.2813L21.9688 11.0625C22.0313 11.4792 22.2034 11.8229 22.485 12.0938C22.7667 12.3646 23.0946 12.5 23.4688 12.5Z" fill="#121212"/>
</svg>
