<svg width="20" height="20" viewBox="0 0 20 20" fill="none" xmlns="http://www.w3.org/2000/svg">
<path d="M5.5 18C5.04167 18 4.64945 17.837 4.32334 17.5108C3.99722 17.1847 3.83389 16.7922 3.83334 16.3333V5.50001C3.59723 5.50001 3.39945 5.42001 3.24 5.26001C3.08056 5.10001 3.00056 4.90223 3 4.66667C2.99945 4.43112 3.07945 4.23334 3.24 4.07334C3.40056 3.91334 3.59834 3.83334 3.83334 3.83334H7.16667C7.16667 3.83334 7.16667 3.83334 7.66666 2.5C7.85415 1.99979 7.9311 2.00056 8.16666 2H9.66666H11.1667C11.4028 2 11.4792 2 11.6667 2.5C12.1667 3.83334 12.1667 3.83334 12.1667 3.83334H15.5C15.7361 3.83334 15.9342 3.91334 16.0942 4.07334C16.2542 4.23334 16.3339 4.43112 16.3333 4.66667C16.3328 4.90223 16.2528 5.10029 16.0933 5.26084C15.9339 5.4214 15.7361 5.50112 15.5 5.50001V16.3333C15.5 16.7917 15.3369 17.1842 15.0108 17.5108C14.6847 17.8375 14.2922 18.0006 13.8333 18H5.5ZM8 14.6667C8.23611 14.6667 8.43417 14.5867 8.59417 14.4267C8.75417 14.2667 8.83389 14.0689 8.83334 13.8333V8.00001C8.83334 7.7639 8.75334 7.56612 8.59334 7.40668C8.43334 7.24723 8.23556 7.16723 8 7.16668C7.76445 7.16612 7.56667 7.24612 7.40667 7.40668C7.24667 7.56723 7.16667 7.76501 7.16667 8.00001V13.8333C7.16667 14.0695 7.24667 14.2675 7.40667 14.4275C7.56667 14.5875 7.76445 14.6672 8 14.6667ZM11.3333 14.6667C11.5694 14.6667 11.7675 14.5867 11.9275 14.4267C12.0875 14.2667 12.1672 14.0689 12.1667 13.8333V8.00001C12.1667 7.7639 12.0867 7.56612 11.9267 7.40668C11.7667 7.24723 11.5689 7.16723 11.3333 7.16668C11.0978 7.16612 10.9 7.24612 10.74 7.40668C10.58 7.56723 10.5 7.76501 10.5 8.00001V13.8333C10.5 14.0695 10.58 14.2675 10.74 14.4275C10.9 14.5875 11.0978 14.6672 11.3333 14.6667Z" fill="#F8F8F8"/>
</svg>
