<svg width="20" height="20" viewBox="0 0 20 20" fill="none" xmlns="http://www.w3.org/2000/svg">
<path d="M2 14.052V16.5854C2 16.8187 2.18333 17.002 2.41667 17.002H4.95C5.05833 17.002 5.16667 16.9604 5.24167 16.877L14.3417 7.78537L11.2167 4.66037L2.125 13.752C2.04167 13.8354 2 13.9354 2 14.052ZM16.7583 5.3687C16.8356 5.29161 16.8969 5.20003 16.9387 5.09922C16.9805 4.99841 17.002 4.89034 17.002 4.7812C17.002 4.67206 16.9805 4.56399 16.9387 4.46318C16.8969 4.36237 16.8356 4.2708 16.7583 4.1937L14.8083 2.2437C14.7312 2.16645 14.6397 2.10516 14.5389 2.06334C14.438 2.02152 14.33 2 14.2208 2C14.1117 2 14.0036 2.02152 13.9028 2.06334C13.802 2.10516 13.7104 2.16645 13.6333 2.2437L12.1083 3.7687L15.2333 6.8937L16.7583 5.3687Z" fill="#F8F8F8"/>
</svg>
